<?xml version="1.0" encoding="UTF-8" standalone="no"?>
<!-- Created with Inkscape (http://www.inkscape.org/) -->

<svg
   xmlns:dc="http://purl.org/dc/elements/1.1/"
   xmlns:cc="http://creativecommons.org/ns#"
   xmlns:rdf="http://www.w3.org/1999/02/22-rdf-syntax-ns#"
   xmlns:svg="http://www.w3.org/2000/svg"
   xmlns="http://www.w3.org/2000/svg"
   xmlns:sodipodi="http://sodipodi.sourceforge.net/DTD/sodipodi-0.dtd"
   xmlns:inkscape="http://www.inkscape.org/namespaces/inkscape"
   width="532.76123"
   height="213.28453"
   id="svg2"
   version="1.1"
   inkscape:version="0.48.2 r9819"
   sodipodi:docname="nozzle_pressure.svg">
  <defs
     id="defs4">
    <clipPath
       id="clipPath4005"
       clipPathUnits="userSpaceOnUse">
      <path
         id="path4007"
         d="M 0,0 612,0 612,792 0,792 0,0 z"
         inkscape:connector-curvature="0" />
    </clipPath>
    <clipPath
       id="clipPath3997"
       clipPathUnits="userSpaceOnUse">
      <path
         id="path3999"
         d="m 12,12 588,0 0,768 -588,0 0,-768 z"
         inkscape:connector-curvature="0" />
    </clipPath>
    <clipPath
       id="clipPath3985"
       clipPathUnits="userSpaceOnUse">
      <path
         id="path3987"
         d="M 0,0 612,0 612,792 0,792 0,0 z"
         inkscape:connector-curvature="0" />
    </clipPath>
    <clipPath
       id="clipPath3977"
       clipPathUnits="userSpaceOnUse">
      <path
         id="path3979"
         d="m 12,12 588,0 0,768 -588,0 0,-768 z"
         inkscape:connector-curvature="0" />
    </clipPath>
    <clipPath
       id="clipPath3953"
       clipPathUnits="userSpaceOnUse">
      <path
         id="path3955"
         d="M 0,0 612,0 612,792 0,792 0,0 z"
         inkscape:connector-curvature="0" />
    </clipPath>
    <clipPath
       id="clipPath3945"
       clipPathUnits="userSpaceOnUse">
      <path
         id="path3947"
         d="m 12,12 588,0 0,768 -588,0 0,-768 z"
         inkscape:connector-curvature="0" />
    </clipPath>
    <clipPath
       id="clipPath3933"
       clipPathUnits="userSpaceOnUse">
      <path
         id="path3935"
         d="M 0,0 612,0 612,792 0,792 0,0 z"
         inkscape:connector-curvature="0" />
    </clipPath>
    <clipPath
       id="clipPath3925"
       clipPathUnits="userSpaceOnUse">
      <path
         id="path3927"
         d="m 12,12 588,0 0,768 -588,0 0,-768 z"
         inkscape:connector-curvature="0" />
    </clipPath>
    <clipPath
       id="clipPath3913"
       clipPathUnits="userSpaceOnUse">
      <path
         id="path3915"
         d="M 0,0 612,0 612,792 0,792 0,0 z"
         inkscape:connector-curvature="0" />
    </clipPath>
    <clipPath
       id="clipPath3905"
       clipPathUnits="userSpaceOnUse">
      <path
         id="path3907"
         d="m 12,12 588,0 0,768 -588,0 0,-768 z"
         inkscape:connector-curvature="0" />
    </clipPath>
    <clipPath
       id="clipPath3893"
       clipPathUnits="userSpaceOnUse">
      <path
         id="path3895"
         d="M 0,0 612,0 612,792 0,792 0,0 z"
         inkscape:connector-curvature="0" />
    </clipPath>
    <clipPath
       id="clipPath3885"
       clipPathUnits="userSpaceOnUse">
      <path
         id="path3887"
         d="m 12,12 588,0 0,768 -588,0 0,-768 z"
         inkscape:connector-curvature="0" />
    </clipPath>
    <clipPath
       id="clipPath3873"
       clipPathUnits="userSpaceOnUse">
      <path
         id="path3875"
         d="M 0,0 612,0 612,792 0,792 0,0 z"
         inkscape:connector-curvature="0" />
    </clipPath>
    <clipPath
       id="clipPath3865"
       clipPathUnits="userSpaceOnUse">
      <path
         id="path3867"
         d="m 12,12 588,0 0,768 -588,0 0,-768 z"
         inkscape:connector-curvature="0" />
    </clipPath>
    <clipPath
       id="clipPath3853"
       clipPathUnits="userSpaceOnUse">
      <path
         id="path3855"
         d="M 0,0 612,0 612,792 0,792 0,0 z"
         inkscape:connector-curvature="0" />
    </clipPath>
    <clipPath
       id="clipPath3845"
       clipPathUnits="userSpaceOnUse">
      <path
         id="path3847"
         d="m 12,12 588,0 0,768 -588,0 0,-768 z"
         inkscape:connector-curvature="0" />
    </clipPath>
    <clipPath
       id="clipPath3829"
       clipPathUnits="userSpaceOnUse">
      <path
         id="path3831"
         d="M 0,0 612,0 612,792 0,792 0,0 z"
         inkscape:connector-curvature="0" />
    </clipPath>
    <clipPath
       id="clipPath3821"
       clipPathUnits="userSpaceOnUse">
      <path
         id="path3823"
         d="m 12,12 588,0 0,768 -588,0 0,-768 z"
         inkscape:connector-curvature="0" />
    </clipPath>
    <clipPath
       id="clipPath3809"
       clipPathUnits="userSpaceOnUse">
      <path
         id="path3811"
         d="M 0,0 612,0 612,792 0,792 0,0 z"
         inkscape:connector-curvature="0" />
    </clipPath>
    <clipPath
       id="clipPath3801"
       clipPathUnits="userSpaceOnUse">
      <path
         id="path3803"
         d="m 12,12 588,0 0,768 -588,0 0,-768 z"
         inkscape:connector-curvature="0" />
    </clipPath>
    <clipPath
       id="clipPath3789"
       clipPathUnits="userSpaceOnUse">
      <path
         id="path3791"
         d="M 0,0 612,0 612,792 0,792 0,0 z"
         inkscape:connector-curvature="0" />
    </clipPath>
    <clipPath
       id="clipPath3781"
       clipPathUnits="userSpaceOnUse">
      <path
         id="path3783"
         d="m 12,12 588,0 0,768 -588,0 0,-768 z"
         inkscape:connector-curvature="0" />
    </clipPath>
    <clipPath
       id="clipPath3769"
       clipPathUnits="userSpaceOnUse">
      <path
         id="path3771"
         d="M 0,0 612,0 612,792 0,792 0,0 z"
         inkscape:connector-curvature="0" />
    </clipPath>
    <clipPath
       id="clipPath3761"
       clipPathUnits="userSpaceOnUse">
      <path
         id="path3763"
         d="m 12,12 588,0 0,768 -588,0 0,-768 z"
         inkscape:connector-curvature="0" />
    </clipPath>
  </defs>
  <sodipodi:namedview
     id="base"
     pagecolor="#ffffff"
     bordercolor="#666666"
     borderopacity="1.0"
     inkscape:pageopacity="0.0"
     inkscape:pageshadow="2"
     inkscape:zoom="1.42"
     inkscape:cx="159.31918"
     inkscape:cy="180.06556"
     inkscape:document-units="px"
     inkscape:current-layer="g3753"
     showgrid="true"
     fit-margin-top="0"
     fit-margin-left="0"
     fit-margin-right="0"
     fit-margin-bottom="0"
     inkscape:window-width="1440"
     inkscape:window-height="852"
     inkscape:window-x="0"
     inkscape:window-y="0"
     inkscape:window-maximized="1">
    <inkscape:grid
       type="xygrid"
       id="grid2985"
       empspacing="5"
       visible="true"
       enabled="true"
       snapvisiblegridlinesonly="true" />
  </sodipodi:namedview>
  <metadata
     id="metadata7">
    <rdf:RDF>
      <cc:Work
         rdf:about="">
        <dc:format>image/svg+xml</dc:format>
        <dc:type
           rdf:resource="http://purl.org/dc/dcmitype/StillImage" />
        <dc:title></dc:title>
      </cc:Work>
    </rdf:RDF>
  </metadata>
  <g
     inkscape:label="Layer 1"
     inkscape:groupmode="layer"
     id="layer1"
     transform="translate(-124.375,-323.45267)">
    <g
       transform="matrix(1.25,0,0,-1.25,-5,1002.3622)"
       inkscape:label="nozzle_thrust"
       id="g3753">
      <g
         id="g3755" />
      <g
         id="g3757">
        <g
           clip-path="url(#clipPath3761)"
           id="g3759" />
      </g>
      <g
         id="g3765">
        <g
           clip-path="url(#clipPath3769)"
           id="g3767" />
      </g>
      <g
         id="g3777">
        <g
           clip-path="url(#clipPath3781)"
           id="g3779" />
      </g>
      <g
         id="g3797">
        <g
           clip-path="url(#clipPath3801)"
           id="g3799" />
      </g>
      <g
         id="g3817">
        <g
           clip-path="url(#clipPath3821)"
           id="g3819" />
      </g>
      <g
         id="g3841">
        <g
           clip-path="url(#clipPath3845)"
           id="g3843" />
      </g>
      <g
         id="g3861">
        <g
           clip-path="url(#clipPath3865)"
           id="g3863" />
      </g>
      <g
         id="g3881">
        <g
           clip-path="url(#clipPath3885)"
           id="g3883" />
      </g>
      <g
         id="g3901">
        <g
           clip-path="url(#clipPath3905)"
           id="g3903" />
      </g>
      <g
         id="g3921">
        <g
           clip-path="url(#clipPath3925)"
           id="g3923" />
      </g>
      <g
         id="g3941">
        <g
           clip-path="url(#clipPath3945)"
           id="g3943" />
      </g>
      <g
         id="g3973">
        <g
           clip-path="url(#clipPath3977)"
           id="g3975" />
      </g>
      <g
         id="g3993">
        <g
           clip-path="url(#clipPath3997)"
           id="g3995" />
      </g>
      <path
         id="path4041"
         style="fill:#777777;fill-opacity:1;fill-rule:nonzero;stroke:none"
         d="m 153,532 6,0 0,-159 -6,0 0,159 z"
         inkscape:connector-curvature="0" />
      <path
         id="path4043"
         style="fill:none;stroke:#000000;stroke-width:1;stroke-linecap:butt;stroke-linejoin:miter;stroke-miterlimit:10;stroke-opacity:1;stroke-dasharray:none"
         d="m 153,532 6,0 0,-159 -6,0 0,159 z"
         inkscape:connector-curvature="0" />
      <path
         id="path4045"
         style="fill:#777777;fill-opacity:1;fill-rule:nonzero;stroke:none"
         d="m 159.5,381 368.5,0 0,-7 -368.5,0 0,7 z"
         inkscape:connector-curvature="0" />
      <path
         id="path4047"
         style="fill:none;stroke:#000000;stroke-width:1;stroke-linecap:butt;stroke-linejoin:miter;stroke-miterlimit:10;stroke-opacity:1;stroke-dasharray:none"
         d="m 159.5,381 368.5,0 0,-7 -368.5,0 0,7 z m -0.5,125 235,0 0,-91 -235,0 0,91 z m 112,-19 c -9.941,0 -18,-8.059 -18,-18 0,-5.667 0,-11.333 0,-17 0,-9.941 8.059,-18 18,-18 29,0 58,0 87,0 9.941,0 18,8.059 18,18 0,5.667 0,11.333 0,17 0,9.941 -8.059,18 -18,18 -29,0 -58,0 -87,0 z"
         inkscape:connector-curvature="0" />
      <path
         id="path4049"
         style="fill:none;stroke:#000000;stroke-width:1;stroke-linecap:square;stroke-linejoin:miter;stroke-miterlimit:10;stroke-opacity:1;stroke-dasharray:none"
         d="m 401.48,481.5 c 0,6.072 -6.272,11 -14,11 -7.728,0 -14,-4.928 -14,-11 0,-6.072 6.272,-11 14,-11 7.728,0 14,4.928 14,11 z m 1.02,-40.02 c 0,6.072 -6.272,11 -14,11 -7.728,0 -14,-4.928 -14,-11 0,-6.072 6.272,-11 14,-11 7.728,0 14,4.928 14,11 z m -7,30.52 51,23 M 397,451 450.5,426.5 m 2.499,61.5 c 0,9.66 -26.656,17.5 -59.499,17.5 m 1,-90.25 c 32.843,0 59.499,7.84 59.499,17.5"
         inkscape:connector-curvature="0" />
      <path
         id="path4051"
         style="fill:#ffffff;fill-opacity:1;fill-rule:nonzero;stroke:none"
         d="m 409.99,488.46 c 0,-8.832 -8.848,-16 -19.75,-16 -10.902,0 -19.75,7.168 -19.75,16 0,8.832 8.848,16 19.75,16 10.902,0 19.75,-7.168 19.75,-16"
         inkscape:connector-curvature="0" />
      <path
         id="path4053"
         style="fill:none;stroke:#ffffff;stroke-width:1;stroke-linecap:square;stroke-linejoin:miter;stroke-miterlimit:10;stroke-opacity:1;stroke-dasharray:none"
         d="m 409.99,488.46 c 0,8.832 -8.848,16 -19.75,16 -10.902,0 -19.75,-7.168 -19.75,-16 0,-8.832 8.848,-16 19.75,-16 10.902,0 19.75,7.168 19.75,16 z"
         inkscape:connector-curvature="0" />
      <path
         id="path4055"
         style="fill:#ffffff;fill-opacity:1;fill-rule:nonzero;stroke:none"
         d="m 410.95,433.02 c 0,-9.384 -8.848,-17 -19.75,-17 -10.902,0 -19.75,7.616 -19.75,17 0,9.384 8.848,17 19.75,17 10.902,0 19.75,-7.616 19.75,-17"
         inkscape:connector-curvature="0" />
      <path
         id="path4057"
         style="fill:none;stroke:#ffffff;stroke-width:1;stroke-linecap:square;stroke-linejoin:miter;stroke-miterlimit:10;stroke-opacity:1;stroke-dasharray:none"
         d="m 410.95,433.02 c 0,9.384 -8.848,17 -19.75,17 -10.902,0 -19.75,-7.616 -19.75,-17 0,-9.384 8.848,-17 19.75,-17 10.902,0 19.75,7.616 19.75,17 z"
         inkscape:connector-curvature="0" />
      <path
         id="path4059"
         style="fill:#ffffff;fill-opacity:1;fill-rule:evenodd;stroke:none"
         d="m 370.875,476 c -3.245,0 -5.875,-2.63 -5.875,-5.875 0,-6 0,-12 0,-18 0,-3.245 2.63,-5.875 5.875,-5.875 3.245,0 5.875,2.63 5.875,5.875 0,6 0,12 0,18 0,3.245 -2.63,5.875 -5.875,5.875"
         inkscape:connector-curvature="0" />
      <path
         id="path4061"
         style="fill:none;stroke:#ffffff;stroke-width:1;stroke-linecap:square;stroke-linejoin:miter;stroke-miterlimit:10;stroke-opacity:1;stroke-dasharray:none"
         d="m 370.875,476 c -3.245,0 -5.875,-2.63 -5.875,-5.875 0,-6 0,-12 0,-18 0,-3.245 2.63,-5.875 5.875,-5.875 3.245,0 5.875,2.63 5.875,5.875 0,6 0,12 0,18 0,3.245 -2.63,5.875 -5.875,5.875 z"
         inkscape:connector-curvature="0" />
      <path
         id="path4063"
         style="fill:#ffffff;fill-opacity:1;fill-rule:evenodd;stroke:none"
         d="m 395.25,471 c -1.381,0 -2.5,-1.119 -2.5,-2.5 0,-4.5 0,-9 0,-13.5 0,-1.381 1.119,-2.5 2.5,-2.5 1.381,0 2.5,1.119 2.5,2.5 0,4.5 0,9 0,13.5 0,1.381 -1.119,2.5 -2.5,2.5"
         inkscape:connector-curvature="0" />
      <path
         id="path4065"
         style="fill:none;stroke:#ffffff;stroke-width:1;stroke-linecap:square;stroke-linejoin:miter;stroke-miterlimit:10;stroke-opacity:1;stroke-dasharray:none"
         d="m 395.25,471 c -1.381,0 -2.5,-1.119 -2.5,-2.5 0,-4.5 0,-9 0,-13.5 0,-1.381 1.119,-2.5 2.5,-2.5 1.381,0 2.5,1.119 2.5,2.5 0,4.5 0,9 0,13.5 0,1.381 -1.119,2.5 -2.5,2.5 z"
         inkscape:connector-curvature="0" />
      <path
         id="path4067"
         style="fill:#ffffff;fill-opacity:1;fill-rule:nonzero;stroke:none"
         d="m 466.02,486 c 0,-5.52 -4.704,-10 -10.5,-10 -5.796,0 -10.5,4.48 -10.5,10 0,5.52 4.704,10 10.5,10 5.796,0 10.5,-4.48 10.5,-10"
         inkscape:connector-curvature="0" />
      <path
         id="path4069"
         style="fill:none;stroke:#ffffff;stroke-width:1;stroke-linecap:square;stroke-linejoin:miter;stroke-miterlimit:10;stroke-opacity:1;stroke-dasharray:none"
         d="m 466.02,486 c 0,5.52 -4.704,10 -10.5,10 -5.796,0 -10.5,-4.48 -10.5,-10 0,-5.52 4.704,-10 10.5,-10 5.796,0 10.5,4.48 10.5,10 z"
         inkscape:connector-curvature="0" />
      <path
         id="path4071"
         style="fill:#ffffff;fill-opacity:1;fill-rule:nonzero;stroke:none"
         d="m 467.94,435 c 0,-5.52 -4.704,-10 -10.5,-10 -5.796,0 -10.5,4.48 -10.5,10 0,5.52 4.704,10 10.5,10 5.796,0 10.5,-4.48 10.5,-10"
         inkscape:connector-curvature="0" />
      <path
         id="path4073"
         style="fill:none;stroke:#ffffff;stroke-width:1;stroke-linecap:square;stroke-linejoin:miter;stroke-miterlimit:10;stroke-opacity:1;stroke-dasharray:none"
         d="m 467.94,435 c 0,5.52 -4.704,10 -10.5,10 -5.796,0 -10.5,-4.48 -10.5,-10 0,-5.52 4.704,-10 10.5,-10 5.796,0 10.5,4.48 10.5,10 z"
         inkscape:connector-curvature="0" />
      <path
         id="path4075"
         style="fill:none;stroke:#000000;stroke-width:1;stroke-linecap:square;stroke-linejoin:miter;stroke-miterlimit:10;stroke-opacity:1;stroke-dasharray:6.962, 6.962;stroke-dashoffset:0"
         d="m 275,483 c -9.941,0 -18,-8.059 -18,-18 0,-3 0,-6 0,-9 0,-9.941 8.059,-18 18,-18 27,0 54,0 81,0 9.941,0 18,8.059 18,18 0,3 0,6 0,9 0,9.941 -8.059,18 -18,18 -27,0 -54,0 -81,0 z"
         inkscape:connector-curvature="0" />
      <path
         id="path4077"
         style="fill:#ffffff;fill-opacity:1;fill-rule:nonzero;stroke:none"
         d="m 371.25,470.25 3.75,0 0,-18.75 -3.75,0 0,18.75 z"
         inkscape:connector-curvature="0" />
      <path
         id="path4079"
         style="fill:none;stroke:#ffffff;stroke-width:1;stroke-linecap:square;stroke-linejoin:miter;stroke-miterlimit:10;stroke-opacity:1;stroke-dasharray:none"
         d="m 371.25,470.25 3.75,0 0,-18.75 -3.75,0 0,18.75 z"
         inkscape:connector-curvature="0" />
      <path
         id="path4081"
         style="fill:none;stroke:#000000;stroke-width:1;stroke-linecap:square;stroke-linejoin:miter;stroke-miterlimit:10;stroke-opacity:1;stroke-dasharray:7.027, 7.027;stroke-dashoffset:3.514"
         d="m 373.5,451.75 c 7.012,6.919 18.291,6.252 26.25,1.5 m -25.5,19.335 c 7.012,-6.919 18.291,-6.252 26.25,-1.5"
         inkscape:connector-curvature="0" />
      <path
         id="path4083"
         style="fill:none;stroke:#000000;stroke-width:1;stroke-linecap:square;stroke-linejoin:miter;stroke-miterlimit:10;stroke-opacity:1;stroke-dasharray:none"
         d="m 401.5,452.75 3.162,-1.5"
         inkscape:connector-curvature="0" />
      <path
         id="path4085"
         style="fill:none;stroke:#000000;stroke-width:1;stroke-linecap:square;stroke-linejoin:miter;stroke-miterlimit:10;stroke-opacity:1;stroke-dasharray:6.668, 6.668;stroke-dashoffset:6.668"
         d="m 404.662,451.25 42.175,-20"
         inkscape:connector-curvature="0" />
      <path
         id="path4087"
         style="fill:none;stroke:#000000;stroke-width:1;stroke-linecap:square;stroke-linejoin:miter;stroke-miterlimit:10;stroke-opacity:1;stroke-dasharray:none"
         d="m 446.837,431.25 3.163,-1.5 m -48.75,41.5 3.178,1.466"
         inkscape:connector-curvature="0" />
      <path
         id="path4089"
         style="fill:none;stroke:#000000;stroke-width:1;stroke-linecap:square;stroke-linejoin:miter;stroke-miterlimit:10;stroke-opacity:1;stroke-dasharray:6.59, 6.59;stroke-dashoffset:6.59"
         d="m 404.428,472.716 41.893,19.318"
         inkscape:connector-curvature="0" />
      <path
         id="path4091"
         style="fill:none;stroke:#000000;stroke-width:1;stroke-linecap:square;stroke-linejoin:miter;stroke-miterlimit:10;stroke-opacity:1;stroke-dasharray:none"
         d="m 446.321,492.034 3.179,1.466 m 1.25,-2 0,-3.5"
         inkscape:connector-curvature="0" />
      <path
         id="path4093"
         style="fill:none;stroke:#000000;stroke-width:1;stroke-linecap:square;stroke-linejoin:miter;stroke-miterlimit:10;stroke-opacity:1;stroke-dasharray:7.607, 7.607;stroke-dashoffset:7.607"
         d="m 450.75,488 0,-53.249"
         inkscape:connector-curvature="0" />
      <path
         id="path4095"
         style="fill:none;stroke:#000000;stroke-width:1;stroke-linecap:square;stroke-linejoin:miter;stroke-miterlimit:10;stroke-opacity:1;stroke-dasharray:none"
         d="m 450.75,434.751 0,-3.501"
         inkscape:connector-curvature="0" />
      <path
         id="path4097"
         style="fill:#000000;fill-opacity:1;fill-rule:nonzero;stroke:none"
         d="m 132.3,458.94 c 0,-0.828 -0.672,-1.5 -1.5,-1.5 -0.828,0 -1.5,0.672 -1.5,1.5 0,0.828 0.672,1.5 1.5,1.5 0.828,0 1.5,-0.672 1.5,-1.5"
         inkscape:connector-curvature="0" />
      <path
         id="path4099"
         style="fill:none;stroke:#000000;stroke-width:1;stroke-linecap:square;stroke-linejoin:miter;stroke-miterlimit:10;stroke-opacity:1;stroke-dasharray:none"
         d="m 131.314,459 0,5.125 17.872,-5.125 -17.872,-5.125 0,5.125 z"
         inkscape:connector-curvature="0" />
      <path
         id="path4101"
         style="fill:#000000;fill-opacity:1;fill-rule:evenodd;stroke:none"
         d="m 131.314,459 0,5.125 17.872,-5.125 -17.872,-5.125"
         inkscape:connector-curvature="0" />
      <path
         id="path4103"
         style="fill:none;stroke:#000000;stroke-width:3;stroke-linecap:square;stroke-linejoin:miter;stroke-miterlimit:10;stroke-opacity:1;stroke-dasharray:none"
         d="m 105,459 25.814,0"
         inkscape:connector-curvature="0" />
      <text
         id="text4105"
         transform="scale(1,-1)"
         x="120"
         y="-474">
        <tspan
           id="tspan4107"
           y="-474"
           x="120"
           style="font-size:12px;font-variant:normal;font-weight:normal;writing-mode:lr-tb;fill:#000000;fill-opacity:1;fill-rule:nonzero;stroke:none;font-family:Times;-inkscape-font-specification:Times-Roman">T</tspan>
      </text>
      <path
         id="path4109"
         style="fill:none;stroke:#000000;stroke-width:1;stroke-linecap:square;stroke-linejoin:miter;stroke-miterlimit:10;stroke-opacity:1;stroke-dasharray:none"
         d="m 275.965,462 0,2.644 9.221,-2.644 -9.221,-2.644 0,2.644 z"
         inkscape:connector-curvature="0" />
      <path
         id="path4111"
         style="fill:#000000;fill-opacity:1;fill-rule:evenodd;stroke:none"
         d="m 275.965,462 0,2.644 9.221,-2.644 -9.221,-2.644"
         inkscape:connector-curvature="0" />
      <path
         id="path4113"
         style="fill:none;stroke:#000000;stroke-width:0.5;stroke-linecap:square;stroke-linejoin:miter;stroke-miterlimit:10;stroke-opacity:1;stroke-dasharray:none"
         d="m 233,462 42.465,0"
         inkscape:connector-curvature="0" />
      <text
         id="text4115"
         transform="scale(1,-1)"
         x="216.16701"
         y="-460.95099">
        <tspan
           id="tspan4117"
           y="-460.95099"
           x="216.16701"
           style="font-size:12px;font-style:italic;font-variant:normal;writing-mode:lr-tb;fill:#000000;fill-opacity:1;fill-rule:nonzero;stroke:none;font-family:Times;-inkscape-font-specification:Times-Italic">m</tspan>
      </text>
      <text
         id="text4119"
         transform="scale(1,-1)"
         x="219.56059"
         y="-460.95099">
        <tspan
           id="tspan4121"
           y="-460.95099"
           x="219.56059"
           style="font-size:12px;font-variant:normal;font-weight:normal;writing-mode:lr-tb;fill:#000000;fill-opacity:1;fill-rule:nonzero;stroke:none;font-family:Times;-inkscape-font-specification:Times-Roman">˙</tspan>
      </text>
      <path
         id="path4123"
         style="fill:none;stroke:#000000;stroke-width:1;stroke-linecap:square;stroke-linejoin:miter;stroke-miterlimit:10;stroke-opacity:1;stroke-dasharray:none"
         d="m 507.965,459 0,2.644 9.221,-2.644 -9.221,-2.644 0,2.644 z"
         inkscape:connector-curvature="0" />
      <path
         id="path4125"
         style="fill:#000000;fill-opacity:1;fill-rule:evenodd;stroke:none"
         d="m 507.965,459 0,2.644 9.221,-2.644 -9.221,-2.644"
         inkscape:connector-curvature="0" />
      <path
         id="path4127"
         style="fill:none;stroke:#000000;stroke-width:0.5;stroke-linecap:square;stroke-linejoin:miter;stroke-miterlimit:10;stroke-opacity:1;stroke-dasharray:none"
         d="m 475.716,459 31.749,0"
         inkscape:connector-curvature="0"
         sodipodi:nodetypes="cc" />
      <path
         id="path4129"
         style="fill:#000000;fill-opacity:1;fill-rule:nonzero;stroke:none"
         d="m 190,405 195,0 0,-4 -195,0 0,4 z"
         inkscape:connector-curvature="0" />
      <path
         id="path4131"
         style="fill:none;stroke:#000000;stroke-width:0.5;stroke-linecap:square;stroke-linejoin:miter;stroke-miterlimit:10;stroke-opacity:1;stroke-dasharray:none"
         d="m 190,405 195,0 0,-4 -195,0 0,4 z m 176.98,-14.04 c 0,4.968 -4.256,9 -9.5,9 -5.244,0 -9.5,-4.032 -9.5,-9 0,-4.968 4.256,-9 9.5,-9 5.244,0 9.5,4.032 9.5,9 z m -150,0 c 0,4.968 -4.256,9 -9.5,9 -5.244,0 -9.5,-4.032 -9.5,-9 0,-4.968 4.256,-9 9.5,-9 5.244,0 9.5,4.032 9.5,9 z"
         inkscape:connector-curvature="0" />
      <path
         id="path4133"
         style="fill:#ababab;fill-opacity:1;fill-rule:evenodd;stroke:none"
         d="m 198.5,405 9,9.5 8.5,-9.5"
         inkscape:connector-curvature="0" />
      <path
         id="path4135"
         style="fill:none;stroke:#000000;stroke-width:0.5;stroke-linecap:square;stroke-linejoin:miter;stroke-miterlimit:10;stroke-opacity:1;stroke-dasharray:none"
         d="m 198.5,405 9,9.5 8.5,-9.5 -17.5,0 z"
         inkscape:connector-curvature="0" />
      <path
         id="path4137"
         style="fill:#ababab;fill-opacity:1;fill-rule:evenodd;stroke:none"
         d="m 349.5,405.5 9,9.5 8.5,-9.5"
         inkscape:connector-curvature="0" />
      <path
         id="path4139"
         style="fill:none;stroke:#000000;stroke-width:0.5;stroke-linecap:square;stroke-linejoin:miter;stroke-miterlimit:10;stroke-opacity:1;stroke-dasharray:none"
         d="m 349.5,405.5 9,9.5 8.5,-9.5 -17.5,0 z"
         inkscape:connector-curvature="0" />
      <path
         id="path4141"
         style="fill:none;stroke:#000000;stroke-width:0.5;stroke-linecap:butt;stroke-linejoin:miter;stroke-miterlimit:10;stroke-opacity:1;stroke-dasharray:none"
         d="m 415.202,513.809 0.355,1.419"
         inkscape:connector-curvature="0" />
      <path
         id="path4143"
         style="fill:none;stroke:#000000;stroke-width:1;stroke-linecap:butt;stroke-linejoin:miter;stroke-miterlimit:10;stroke-opacity:1;stroke-dasharray:none"
         d="m 415.557,515.228 -2.799,-0.292 4.801,8.305 0.329,-9.587 -2.331,1.574 z"
         inkscape:connector-curvature="0" />
      <path
         id="path4145"
         style="fill:#000000;fill-opacity:1;fill-rule:evenodd;stroke:none"
         d="m 415.557,515.228 -2.799,-0.292 4.801,8.305 0.329,-9.587"
         inkscape:connector-curvature="0" />
      <path
         id="path4147"
         style="fill:none;stroke:#000000;stroke-width:0.5;stroke-linecap:square;stroke-linejoin:miter;stroke-miterlimit:10;stroke-opacity:1;stroke-dasharray:none"
         d="m 413,505 2.202,8.81"
         inkscape:connector-curvature="0" />
      <text
         id="text4149"
         transform="scale(1,-1)"
         x="416.5"
         y="-529.95099">
        <tspan
           id="tspan4151"
           y="-529.95099"
           x="416.5"
           style="font-size:12px;font-style:italic;font-variant:normal;writing-mode:lr-tb;fill:#000000;fill-opacity:1;fill-rule:nonzero;stroke:none;font-family:Times;-inkscape-font-specification:Times-Italic">n</tspan>
      </text>
      <text
         id="text4153"
         transform="scale(1,-1)"
         x="417.50201"
         y="-529.84302">
        <tspan
           id="tspan4155"
           y="-529.84302"
           x="417.50201"
           style="font-size:12px;font-variant:normal;font-weight:normal;writing-mode:lr-tb;fill:#000000;fill-opacity:1;fill-rule:nonzero;stroke:none;font-family:Times;-inkscape-font-specification:Times-Roman">ˆ</tspan>
      </text>
      <path
         id="path4157"
         style="fill:none;stroke:#000000;stroke-width:0.5;stroke-linecap:butt;stroke-linejoin:miter;stroke-miterlimit:10;stroke-opacity:1;stroke-dasharray:none"
         d="m 260.398,517.598 -0.811,-1.217"
         inkscape:connector-curvature="0" />
      <path
         id="path4159"
         style="fill:none;stroke:#000000;stroke-width:1;stroke-linecap:butt;stroke-linejoin:miter;stroke-miterlimit:10;stroke-opacity:1;stroke-dasharray:none"
         d="m 259.587,516.381 2.734,-0.666 -7.315,-6.206 2.915,9.139 1.666,-2.267 z"
         inkscape:connector-curvature="0" />
      <path
         id="path4161"
         style="fill:#000000;fill-opacity:1;fill-rule:evenodd;stroke:none"
         d="m 259.587,516.381 2.734,-0.666 -7.315,-6.206 2.915,9.139"
         inkscape:connector-curvature="0" />
      <path
         id="path4163"
         style="fill:none;stroke:#000000;stroke-width:0.5;stroke-linecap:square;stroke-linejoin:miter;stroke-miterlimit:10;stroke-opacity:1;stroke-dasharray:none"
         d="M 260.398,517.598 266,526"
         inkscape:connector-curvature="0" />
      <text
         id="text4165"
         transform="scale(1,-1)"
         x="264.89999"
         y="-531.95099">
        <tspan
           id="tspan4167"
           y="-531.95099"
           x="264.89999"
           style="font-size:12px;font-style:italic;font-variant:normal;writing-mode:lr-tb;fill:#000000;fill-opacity:1;fill-rule:nonzero;stroke:none;font-family:Times;-inkscape-font-specification:Times-Italic">A</tspan>
      </text>
      <text
         id="text4169"
         transform="scale(1,-1)"
         x="272.82199"
         y="-527.401">
        <tspan
           id="tspan4171"
           y="-527.401"
           x="272.82199"
           style="font-size:10px;font-style:italic;font-variant:normal;writing-mode:lr-tb;fill:#000000;fill-opacity:1;fill-rule:nonzero;stroke:none;font-family:Times;-inkscape-font-specification:Times-Italic">s</tspan>
      </text>
      <path
         id="path4173"
         style="fill:none;stroke:#000000;stroke-width:0.5;stroke-linecap:butt;stroke-linejoin:miter;stroke-miterlimit:10;stroke-opacity:1;stroke-dasharray:none"
         d="m 242.481,437.267 1.334,0.6"
         inkscape:connector-curvature="0" />
      <path
         id="path4175"
         style="fill:none;stroke:#000000;stroke-width:1;stroke-linecap:butt;stroke-linejoin:miter;stroke-miterlimit:10;stroke-opacity:1;stroke-dasharray:none"
         d="m 243.815,437.867 -1.963,2.016 9.494,1.373 -7.324,-6.195 -0.207,2.806 z"
         inkscape:connector-curvature="0" />
      <path
         id="path4177"
         style="fill:#000000;fill-opacity:1;fill-rule:evenodd;stroke:none"
         d="m 243.815,437.867 -1.963,2.016 9.494,1.373 -7.324,-6.195"
         inkscape:connector-curvature="0" />
      <path
         id="path4179"
         style="fill:none;stroke:#000000;stroke-width:0.5;stroke-linecap:square;stroke-linejoin:miter;stroke-miterlimit:10;stroke-opacity:1;stroke-dasharray:none"
         d="M 242.481,437.267 233,433"
         inkscape:connector-curvature="0" />
      <text
         id="text4181"
         transform="scale(1,-1)"
         x="215.62601"
         y="-429.95099">
        <tspan
           id="tspan4183"
           y="-429.95099"
           x="215.62601"
           style="font-size:12px;font-style:italic;font-variant:normal;writing-mode:lr-tb;fill:#000000;fill-opacity:1;fill-rule:nonzero;stroke:none;font-family:Times;-inkscape-font-specification:Times-Italic">A</tspan>
      </text>
      <text
         id="text4185"
         transform="scale(1,-1)"
         x="223.548"
         y="-425.401">
        <tspan
           id="tspan4187"
           y="-425.401"
           x="223.548"
           style="font-size:10px;font-style:italic;font-variant:normal;writing-mode:lr-tb;fill:#000000;fill-opacity:1;fill-rule:nonzero;stroke:none;font-family:Times;-inkscape-font-specification:Times-Italic">c</tspan>
      </text>
      <path
         id="path4189"
         style="fill:none;stroke:#000000;stroke-width:0.5;stroke-linecap:butt;stroke-linejoin:miter;stroke-miterlimit:10;stroke-opacity:1;stroke-dasharray:none"
         d="m 416.277,470.015 0.726,-1.27"
         inkscape:connector-curvature="0" />
      <path
         id="path4191"
         style="fill:none;stroke:#000000;stroke-width:1;stroke-linecap:butt;stroke-linejoin:miter;stroke-miterlimit:10;stroke-opacity:1;stroke-dasharray:none"
         d="m 417.003,468.745 1.818,2.147 2.279,-9.318 -6.871,6.694 2.774,0.477 z"
         inkscape:connector-curvature="0" />
      <path
         id="path4193"
         style="fill:#000000;fill-opacity:1;fill-rule:evenodd;stroke:none"
         d="m 417.003,468.745 1.818,2.147 2.279,-9.318 -6.871,6.694"
         inkscape:connector-curvature="0" />
      <path
         id="path4195"
         style="fill:none;stroke:#000000;stroke-width:0.5;stroke-linecap:square;stroke-linejoin:miter;stroke-miterlimit:10;stroke-opacity:1;stroke-dasharray:none"
         d="m 414,474 2.277,-3.985"
         inkscape:connector-curvature="0" />
      <text
         id="text4197"
         transform="scale(1,-1)"
         x="425.5"
         y="-454.95099">
        <tspan
           id="tspan4199"
           y="-454.95099"
           x="425.5"
           style="font-size:12px;font-style:italic;font-variant:normal;writing-mode:lr-tb;fill:#000000;fill-opacity:1;fill-rule:nonzero;stroke:none;font-family:Times;-inkscape-font-specification:Times-Italic">n</tspan>
      </text>
      <text
         id="text4201"
         transform="scale(1,-1)"
         x="426.50201"
         y="-454.84299">
        <tspan
           id="tspan4203"
           y="-454.84299"
           x="426.50201"
           style="font-size:12px;font-variant:normal;font-weight:normal;writing-mode:lr-tb;fill:#000000;fill-opacity:1;fill-rule:nonzero;stroke:none;font-family:Times;-inkscape-font-specification:Times-Roman">ˆ</tspan>
      </text>
      <path
         id="path4205"
         style="fill:none;stroke:#000000;stroke-width:0.5;stroke-linecap:butt;stroke-linejoin:miter;stroke-miterlimit:10;stroke-opacity:1;stroke-dasharray:none"
         d="m 331.896,494.444 -0.621,-1.324"
         inkscape:connector-curvature="0" />
      <path
         id="path4207"
         style="fill:none;stroke:#000000;stroke-width:1;stroke-linecap:butt;stroke-linejoin:miter;stroke-miterlimit:10;stroke-opacity:1;stroke-dasharray:none"
         d="m 331.275,493.12 2.803,-0.251 -6.308,-7.227 1.52,9.472 1.985,-1.994 z"
         inkscape:connector-curvature="0" />
      <path
         id="path4209"
         style="fill:#000000;fill-opacity:1;fill-rule:evenodd;stroke:none"
         d="m 331.275,493.12 2.803,-0.251 -6.308,-7.227 1.52,9.472"
         inkscape:connector-curvature="0" />
      <path
         id="path4211"
         style="fill:none;stroke:#000000;stroke-width:0.5;stroke-linecap:square;stroke-linejoin:miter;stroke-miterlimit:10;stroke-opacity:1;stroke-dasharray:none"
         d="M 331.896,494.444 342,516"
         inkscape:connector-curvature="0" />
      <text
         id="text4213"
         transform="scale(1,-1)"
         x="322"
         y="-534">
        <tspan
           id="tspan4215"
           sodipodi:role="line"
           y="-534"
           x="322 327.328 333.328 339.328 342.664 346.66 352.66"
           style="font-size:12px;font-variant:normal;font-weight:normal;writing-mode:lr-tb;fill:#000000;fill-opacity:1;fill-rule:nonzero;stroke:none;font-family:Times;-inkscape-font-specification:Times-Roman">control</tspan>
      </text>
      <text
         id="text4217"
         transform="scale(1,-1)"
         x="321.0004"
         y="-522">
        <tspan
           id="tspan4219"
           sodipodi:role="line"
           y="-522"
           x="321.0004 326.76041 332.76041 336.09641 342.09641 351.4324"
           style="font-size:12px;font-variant:normal;font-weight:normal;writing-mode:lr-tb;fill:#000000;fill-opacity:1;fill-rule:nonzero;stroke:none;font-family:Times;-inkscape-font-specification:Times-Roman">volume</tspan>
      </text>
      <text
         id="text4221"
         transform="scale(1,-1)"
         x="458.8912"
         y="-473.80801">
        <tspan
           id="tspan4223"
           y="-473.80801"
           x="458.8912"
           style="font-size:12px;font-style:italic;font-variant:normal;writing-mode:lr-tb;fill:#000000;fill-opacity:1;fill-rule:nonzero;stroke:none;font-family:Times;-inkscape-font-specification:Times-Italic">P</tspan>
      </text>
      <text
         id="text4225"
         transform="scale(1,-1)"
         x="466.81299"
         y="-469.259">
        <tspan
           id="tspan4227"
           y="-469.259"
           x="466.81299"
           style="font-size:10px;font-style:italic;font-variant:normal;writing-mode:lr-tb;fill:#000000;fill-opacity:1;fill-rule:nonzero;stroke:none;font-family:Times;-inkscape-font-specification:Times-Italic">e</tspan>
      </text>
      <text
         id="text4229"
         transform="matrix(1,0,-0.21255833,-1,0,0)"
         x="359.73953"
         y="-458.80801"
         style="font-size:11.73776722px">
        <tspan
           id="tspan4231"
           y="-458.80801"
           x="359.73953"
           style="font-size:12px;font-variant:normal;font-weight:normal;writing-mode:lr-tb;fill:#000000;fill-opacity:1;fill-rule:nonzero;stroke:none;font-family:Symbol;-inkscape-font-specification:Symbol">ρ</tspan>
      </text>
      <text
         id="text4233"
         transform="scale(1,-1)"
         x="464.44101"
         y="-454.259">
        <tspan
           id="tspan4235"
           y="-454.259"
           x="464.44101"
           style="font-size:10px;font-style:italic;font-variant:normal;writing-mode:lr-tb;fill:#000000;fill-opacity:1;fill-rule:nonzero;stroke:none;font-family:Times;-inkscape-font-specification:Times-Italic">e</tspan>
      </text>
      <text
         id="text4237"
         transform="scale(1,-1)"
         x="454.966"
         y="-440.80801">
        <tspan
           id="tspan4239"
           y="-440.80801"
           x="454.966"
           style="font-size:12px;font-style:italic;font-variant:normal;writing-mode:lr-tb;fill:#000000;fill-opacity:1;fill-rule:nonzero;stroke:none;font-family:Times;-inkscape-font-specification:Times-Italic">U</tspan>
      </text>
      <text
         id="text4241"
         transform="scale(1,-1)"
         x="464.73801"
         y="-436.259">
        <tspan
           id="tspan4243"
           y="-436.259"
           x="464.73801"
           style="font-size:10px;font-style:italic;font-variant:normal;writing-mode:lr-tb;fill:#000000;fill-opacity:1;fill-rule:nonzero;stroke:none;font-family:Times;-inkscape-font-specification:Times-Italic">e</tspan>
      </text>
      <path
         id="path4245"
         style="fill:none;stroke:#000000;stroke-width:0.5;stroke-linecap:butt;stroke-linejoin:miter;stroke-miterlimit:10;stroke-opacity:1;stroke-dasharray:none"
         d="m 462.711,494.427 -1.249,-0.761"
         inkscape:connector-curvature="0" />
      <path
         id="path4247"
         style="fill:none;stroke:#000000;stroke-width:1;stroke-linecap:butt;stroke-linejoin:miter;stroke-miterlimit:10;stroke-opacity:1;stroke-dasharray:none"
         d="m 461.462,493.666 2.197,-1.758 -9.251,-2.538 6.5,7.054 0.554,-2.758 z"
         inkscape:connector-curvature="0" />
      <path
         id="path4249"
         style="fill:#000000;fill-opacity:1;fill-rule:evenodd;stroke:none"
         d="m 461.462,493.666 2.197,-1.758 -9.251,-2.538 6.5,7.054"
         inkscape:connector-curvature="0" />
      <path
         id="path4251"
         style="fill:none;stroke:#000000;stroke-width:0.5;stroke-linecap:square;stroke-linejoin:miter;stroke-miterlimit:10;stroke-opacity:1;stroke-dasharray:none"
         d="M 462.711,494.427 485,508"
         inkscape:connector-curvature="0" />
      <text
         id="text4253"
         transform="scale(1,-1)"
         x="485.62601"
         y="-511.95099">
        <tspan
           id="tspan4255"
           y="-511.95099"
           x="485.62601"
           style="font-size:12px;font-style:italic;font-variant:normal;writing-mode:lr-tb;fill:#000000;fill-opacity:1;fill-rule:nonzero;stroke:none;font-family:Times;-inkscape-font-specification:Times-Italic">A</tspan>
      </text>
      <text
         id="text4257"
         transform="scale(1,-1)"
         x="493.548"
         y="-507.401">
        <tspan
           id="tspan4259"
           y="-507.401"
           x="493.548"
           style="font-size:10px;font-style:italic;font-variant:normal;writing-mode:lr-tb;fill:#000000;fill-opacity:1;fill-rule:nonzero;stroke:none;font-family:Times;-inkscape-font-specification:Times-Italic">e</tspan>
      </text>
      <text
         id="text4261"
         transform="scale(1,-1)"
         x="523"
         y="-457">
        <tspan
           id="tspan4263"
           y="-457"
           x="523"
           style="font-size:12px;font-variant:normal;font-weight:normal;writing-mode:lr-tb;fill:#000000;fill-opacity:1;fill-rule:nonzero;stroke:none;font-family:Times;-inkscape-font-specification:Times-Roman">x</tspan>
      </text>
      <text
         id="text4265"
         transform="scale(1,-1)"
         x="446.61041"
         y="-534.37958">
        <tspan
           id="tspan4267"
           y="-534.37958"
           x="446.61041"
           style="font-size:12px;font-style:italic;font-variant:normal;writing-mode:lr-tb;fill:#000000;fill-opacity:1;fill-rule:nonzero;stroke:none;font-family:Times;-inkscape-font-specification:Times-Italic">P</tspan>
      </text>
      <text
         id="text4269"
         transform="scale(1,-1)"
         x="454.53201"
         y="-529.83002">
        <tspan
           id="tspan4271"
           y="-529.83002"
           x="454.53201"
           style="font-size:10px;font-style:italic;font-variant:normal;writing-mode:lr-tb;fill:#000000;fill-opacity:1;fill-rule:nonzero;stroke:none;font-family:Times;-inkscape-font-specification:Times-Italic">0</tspan>
      </text>
    </g>
  </g>
</svg>
